<?xml version="1.0" encoding="utf-8"?>
<svg version="1.1" xmlns:xlink="http://www.w3.org/1999/xlink" width="12px" height="12px" viewBox="50 187  12 12" xmlns="http://www.w3.org/2000/svg">
  <path d="M 56 187  C 59.36 187  62 189.64  62 193  C 62 196.36  59.36 199  56 199  C 52.64 199  50 196.36  50 193  C 50 189.64  52.64 187  56 187  Z " fill-rule="nonzero" fill="#f0f0f0" stroke="none" />
  <path d="M 56 187.5  C 59.08 187.5  61.5 189.92  61.5 193  C 61.5 196.08  59.08 198.5  56 198.5  C 52.92 198.5  50.5 196.08  50.5 193  C 50.5 189.92  52.92 187.5  56 187.5  Z " stroke-width="1" stroke="#797979" fill="none" />
  <path d="M 56 196  C 54.32 196  53 194.68  53 193  C 53 191.32  54.32 190  56 190  C 57.68 190  59 191.32  59 193  C 59 194.68  57.68 196  56 196  " fill-rule="nonzero" fill="#797979" stroke="none" />
</svg>