<?xml version="1.0" encoding="utf-8"?>
<svg version="1.1" xmlns:xlink="http://www.w3.org/1999/xlink" width="12px" height="12px" viewBox="670 480  12 12" xmlns="http://www.w3.org/2000/svg">
  <path d="M 676 480  C 679.36 480  682 482.64  682 486  C 682 489.36  679.36 492  676 492  C 672.64 492  670 489.36  670 486  C 670 482.64  672.64 480  676 480  Z " fill-rule="nonzero" fill="#ffffff" stroke="none" />
  <path d="M 676 480.5  C 679.08 480.5  681.5 482.92  681.5 486  C 681.5 489.08  679.08 491.5  676 491.5  C 672.92 491.5  670.5 489.08  670.5 486  C 670.5 482.92  672.92 480.5  676 480.5  Z " stroke-width="1" stroke="#797979" fill="none" />
  <path d="M 676 489  C 674.32 489  673 487.68  673 486  C 673 484.32  674.32 483  676 483  C 677.68 483  679 484.32  679 486  C 679 487.68  677.68 489  676 489  " fill-rule="nonzero" fill="#797979" stroke="none" />
</svg>