<?xml version="1.0" encoding="utf-8"?>
<svg version="1.1" xmlns:xlink="http://www.w3.org/1999/xlink" width="12px" height="12px" viewBox="2191 1226  12 12" xmlns="http://www.w3.org/2000/svg">
  <path d="M 2197 1226  C 2200.36 1226  2203 1228.64  2203 1232  C 2203 1235.36  2200.36 1238  2197 1238  C 2193.64 1238  2191 1235.36  2191 1232  C 2191 1228.64  2193.64 1226  2197 1226  Z " fill-rule="nonzero" fill="#f0f0f0" stroke="none" />
  <path d="M 2197 1226.5  C 2200.08 1226.5  2202.5 1228.92  2202.5 1232  C 2202.5 1235.08  2200.08 1237.5  2197 1237.5  C 2193.92 1237.5  2191.5 1235.08  2191.5 1232  C 2191.5 1228.92  2193.92 1226.5  2197 1226.5  Z " stroke-width="1" stroke="#797979" fill="none" />
  <path d="M 2197 1235  C 2195.32 1235  2194 1233.68  2194 1232  C 2194 1230.32  2195.32 1229  2197 1229  C 2198.68 1229  2200 1230.32  2200 1232  C 2200 1233.68  2198.68 1235  2197 1235  " fill-rule="nonzero" fill="#797979" stroke="none" />
</svg>