<?xml version="1.0" encoding="utf-8"?>
<svg version="1.1" xmlns:xlink="http://www.w3.org/1999/xlink" width="80px" height="30px" xmlns="http://www.w3.org/2000/svg">
  <g transform="matrix(1 0 0 1 -2344 -861 )">
    <path d="M 2344.5 864  A 2.5 2.5 0 0 1 2347 861.5 L 2421 861.5  A 2.5 2.5 0 0 1 2423.5 864 L 2423.5 888  A 2.5 2.5 0 0 1 2421 890.5 L 2347 890.5  A 2.5 2.5 0 0 1 2344.5 888 L 2344.5 864  Z " fill-rule="nonzero" fill="#f9f9f9" stroke="none" />
    <path d="M 2344.5 864  A 2.5 2.5 0 0 1 2347 861.5 L 2421 861.5  A 2.5 2.5 0 0 1 2423.5 864 L 2423.5 888  A 2.5 2.5 0 0 1 2421 890.5 L 2347 890.5  A 2.5 2.5 0 0 1 2344.5 888 L 2344.5 864  Z " stroke-width="1" stroke="#e4e4e4" fill="none" />
  </g>
</svg>