<?xml version="1.0" encoding="utf-8"?>
<svg version="1.1" xmlns:xlink="http://www.w3.org/1999/xlink" width="80px" height="30px" xmlns="http://www.w3.org/2000/svg">
  <g transform="matrix(1 0 0 1 -2344 -861 )">
    <path d="M 2345 864  A 2 2 0 0 1 2347 862 L 2421 862  A 2 2 0 0 1 2423 864 L 2423 888  A 2 2 0 0 1 2421 890 L 2347 890  A 2 2 0 0 1 2345 888 L 2345 864  Z " fill-rule="nonzero" fill="#f0f7ff" stroke="none" />
    <path d="M 2344.5 864  A 2.5 2.5 0 0 1 2347 861.5 L 2421 861.5  A 2.5 2.5 0 0 1 2423.5 864 L 2423.5 888  A 2.5 2.5 0 0 1 2421 890.5 L 2347 890.5  A 2.5 2.5 0 0 1 2344.5 888 L 2344.5 864  Z " stroke-width="1" stroke="#7abbff" fill="none" stroke-opacity="0.996078431372549" />
  </g>
</svg>