<?xml version="1.0" encoding="utf-8"?>
<svg version="1.1" xmlns:xlink="http://www.w3.org/1999/xlink" width="13px" height="15px" xmlns="http://www.w3.org/2000/svg">
  <g transform="matrix(1 0 0 1 -17 -594 )">
    <path d="M 12.6614583333333 4.28571428571429  L 8.66666666666667 4.28571428571429  L 8.66666666666667 0.334821428571429  C 8.79079861111111 0.412946428571428  8.89236111111111 0.491071428571427  8.97135416666667 0.569196428571429  L 12.4244791666667 3.984375  C 12.5034722222222 4.0625  12.5824652777778 4.16294642857143  12.6614583333333 4.28571428571429  Z M 7.58333333333333 0  L 7.58333333333333 4.55357142857143  C 7.58333333333333 4.77678571428571  7.66232638888889 4.96651785714286  7.8203125 5.12276785714286  C 7.97829861111111 5.27901785714286  8.17013888888889 5.35714285714286  8.39583333333333 5.35714285714286  L 13 5.35714285714286  L 13 14.1964285714286  C 13 14.4196428571429  12.9210069444444 14.609375  12.7630208333333 14.765625  C 12.6050347222222 14.921875  12.4131944444444 15  12.1875 15  L 0.8125 15  C 0.586805555555556 15  0.394965277777778 14.921875  0.236979166666667 14.765625  C 0.0789930555555556 14.609375  0 14.4196428571429  0 14.1964285714286  L 0 0.803571428571429  C 0 0.580357142857142  0.0789930555555556 0.390624999999999  0.236979166666667 0.234375  C 0.394965277777778 0.0781250000000006  0.586805555555556 0  0.8125 0  L 7.58333333333333 0  Z " fill-rule="nonzero" fill="#2574d6" stroke="none" transform="matrix(1 0 0 1 17 594 )" />
  </g>
</svg>