<?xml version="1.0" encoding="utf-8"?>
<svg version="1.1" xmlns:xlink="http://www.w3.org/1999/xlink" width="127px" height="25px" xmlns="http://www.w3.org/2000/svg">
  <g transform="matrix(1 0 0 1 -1150 -804 )">
    <path d="M 1151 812  A 7 7 0 0 1 1158 805 L 1269 805  A 7 7 0 0 1 1276 812 L 1276 821  A 7 7 0 0 1 1269 828 L 1158 828  A 7 7 0 0 1 1151 821 L 1151 812  Z " fill-rule="nonzero" fill="#0079fe" stroke="none" />
    <path d="M 1150.5 812  A 7.5 7.5 0 0 1 1158 804.5 L 1269 804.5  A 7.5 7.5 0 0 1 1276.5 812 L 1276.5 821  A 7.5 7.5 0 0 1 1269 828.5 L 1158 828.5  A 7.5 7.5 0 0 1 1150.5 821 L 1150.5 812  Z " stroke-width="1" stroke="#0079fe" fill="none" stroke-opacity="0.654901960784314" />
  </g>
</svg>