<?xml version="1.0" encoding="utf-8"?>
<svg version="1.1" xmlns:xlink="http://www.w3.org/1999/xlink" width="127px" height="25px" xmlns="http://www.w3.org/2000/svg">
  <g transform="matrix(1 0 0 1 -1383 -571 )">
    <path d="M 1384 579  A 7 7 0 0 1 1391 572 L 1502 572  A 7 7 0 0 1 1509 579 L 1509 588  A 7 7 0 0 1 1502 595 L 1391 595  A 7 7 0 0 1 1384 588 L 1384 579  Z " fill-rule="nonzero" fill="#0079fe" stroke="none" />
    <path d="M 1383.5 579  A 7.5 7.5 0 0 1 1391 571.5 L 1502 571.5  A 7.5 7.5 0 0 1 1509.5 579 L 1509.5 588  A 7.5 7.5 0 0 1 1502 595.5 L 1391 595.5  A 7.5 7.5 0 0 1 1383.5 588 L 1383.5 579  Z " stroke-width="1" stroke="#0079fe" fill="none" stroke-opacity="0.654901960784314" />
  </g>
</svg>