<?xml version="1.0" encoding="utf-8"?>
<svg version="1.1" xmlns:xlink="http://www.w3.org/1999/xlink" width="127px" height="25px" xmlns="http://www.w3.org/2000/svg">
  <g transform="matrix(1 0 0 1 -395 -648 )">
    <path d="M 396 656  A 7 7 0 0 1 403 649 L 514 649  A 7 7 0 0 1 521 656 L 521 665  A 7 7 0 0 1 514 672 L 403 672  A 7 7 0 0 1 396 665 L 396 656  Z " fill-rule="nonzero" fill="#0079fe" stroke="none" />
    <path d="M 395.5 656  A 7.5 7.5 0 0 1 403 648.5 L 514 648.5  A 7.5 7.5 0 0 1 521.5 656 L 521.5 665  A 7.5 7.5 0 0 1 514 672.5 L 403 672.5  A 7.5 7.5 0 0 1 395.5 665 L 395.5 656  Z " stroke-width="1" stroke="#0079fe" fill="none" stroke-opacity="0.654901960784314" />
  </g>
</svg>