<?xml version="1.0" encoding="utf-8"?>
<svg version="1.1" xmlns:xlink="http://www.w3.org/1999/xlink" width="1004px" height="40px" xmlns="http://www.w3.org/2000/svg">
  <defs>
    <mask fill="white" id="clip81">
      <path d="M 0 35  L 0 5  C 0 2.19999999999999  7.14822006472507 0  16.2459546925566 0  L 544.387172697852 0  L 987.754045307443 0  C 996.851779935275 0  1004 2.19999999999999  1004 5  L 1004 35  C 1004 37.8  996.851779935275 40  987.754045307443 40  L 16.2459546925566 40  C 7.14822006472507 40  0 37.8  0 35  Z " fill-rule="evenodd" />
    </mask>
  </defs>
  <g transform="matrix(1 0 0 1 -235 -22 )">
    <path d="M 0 35  L 0 5  C 0 2.19999999999999  7.14822006472507 0  16.2459546925566 0  L 544.387172697852 0  L 987.754045307443 0  C 996.851779935275 0  1004 2.19999999999999  1004 5  L 1004 35  C 1004 37.8  996.851779935275 40  987.754045307443 40  L 16.2459546925566 40  C 7.14822006472507 40  0 37.8  0 35  Z " fill-rule="nonzero" fill="#0079fe" stroke="none" transform="matrix(1 0 0 1 235 22 )" />
    <path d="M 0 35  L 0 5  C 0 2.19999999999999  7.14822006472507 0  16.2459546925566 0  L 544.387172697852 0  L 987.754045307443 0  C 996.851779935275 0  1004 2.19999999999999  1004 5  L 1004 35  C 1004 37.8  996.851779935275 40  987.754045307443 40  L 16.2459546925566 40  C 7.14822006472507 40  0 37.8  0 35  Z " stroke-width="2" stroke="#0079fe" fill="none" transform="matrix(1 0 0 1 235 22 )" mask="url(#clip81)" />
  </g>
</svg>