<?xml version="1.0" encoding="utf-8"?>
<svg version="1.1" xmlns:xlink="http://www.w3.org/1999/xlink" width="70px" height="25px" xmlns="http://www.w3.org/2000/svg">
  <g transform="matrix(1 0 0 1 -126 -307 )">
    <path d="M 127 315  A 7 7 0 0 1 134 308 L 188 308  A 7 7 0 0 1 195 315 L 195 324  A 7 7 0 0 1 188 331 L 134 331  A 7 7 0 0 1 127 324 L 127 315  Z " fill-rule="nonzero" fill="#81d3f8" stroke="none" fill-opacity="0.168627450980392" />
    <path d="M 126.5 315  A 7.5 7.5 0 0 1 134 307.5 L 188 307.5  A 7.5 7.5 0 0 1 195.5 315 L 195.5 324  A 7.5 7.5 0 0 1 188 331.5 L 134 331.5  A 7.5 7.5 0 0 1 126.5 324 L 126.5 315  Z " stroke-width="1" stroke="#0079fe" fill="none" stroke-opacity="0.654901960784314" />
  </g>
</svg>