<?xml version="1.0" encoding="utf-8"?>
<svg version="1.1" xmlns:xlink="http://www.w3.org/1999/xlink" width="14px" height="14px" xmlns="http://www.w3.org/2000/svg">
  <g transform="matrix(1 0 0 1 -482 -114 )">
    <path d="M 489 115  C 492.36 115  495 117.64  495 121  C 495 124.36  492.36 127  489 127  C 485.64 127  483 124.36  483 121  C 483 117.64  485.64 115  489 115  Z " fill-rule="nonzero" fill="#0d0d51" stroke="none" />
    <path d="M 489 115  C 492.36 115  495 117.64  495 121  C 495 124.36  492.36 127  489 127  C 485.64 127  483 124.36  483 121  C 483 117.64  485.64 115  489 115  Z " stroke-width="2" stroke="#ffffff" fill="none" />
  </g>
</svg>