<?xml version="1.0" encoding="utf-8"?>
<svg version="1.1" xmlns:xlink="http://www.w3.org/1999/xlink" width="331px" height="104px" xmlns="http://www.w3.org/2000/svg">
  <g transform="matrix(1 0 0 1 -160 -1373 )">
    <path d="M 161 1377  A 3 3 0 0 1 164 1374 L 487 1374  A 3 3 0 0 1 490 1377 L 490 1473  A 3 3 0 0 1 487 1476 L 164 1476  A 3 3 0 0 1 161 1473 L 161 1377  Z " fill-rule="nonzero" fill="#000000" stroke="none" fill-opacity="0.0196078431372549" />
    <path d="M 160.5 1377  A 3.5 3.5 0 0 1 164 1373.5 L 487 1373.5  A 3.5 3.5 0 0 1 490.5 1377 L 490.5 1473  A 3.5 3.5 0 0 1 487 1476.5 L 164 1476.5  A 3.5 3.5 0 0 1 160.5 1473 L 160.5 1377  Z " stroke-width="1" stroke-dasharray="9,4" stroke="#d9d9d9" fill="none" stroke-dashoffset="0.5" />
  </g>
</svg>