<?xml version="1.0" encoding="utf-8"?>
<svg version="1.1" xmlns:xlink="http://www.w3.org/1999/xlink" width="80px" height="35px" xmlns="http://www.w3.org/2000/svg">
  <g transform="matrix(1 0 0 1 -981 -106 )">
    <path d="M 981.5 111  A 4.5 4.5 0 0 1 986 106.5 L 1056 106.5  A 4.5 4.5 0 0 1 1060.5 111 L 1060.5 136  A 4.5 4.5 0 0 1 1056 140.5 L 986 140.5  A 4.5 4.5 0 0 1 981.5 136 L 981.5 111  Z " fill-rule="nonzero" fill="#f9f9f9" stroke="none" fill-opacity="0" />
    <path d="M 981.5 111  A 4.5 4.5 0 0 1 986 106.5 L 1056 106.5  A 4.5 4.5 0 0 1 1060.5 111 L 1060.5 136  A 4.5 4.5 0 0 1 1056 140.5 L 986 140.5  A 4.5 4.5 0 0 1 981.5 136 L 981.5 111  Z " stroke-width="1" stroke="#e4e4e4" fill="none" />
  </g>
</svg>