<?xml version="1.0" encoding="utf-8"?>
<svg version="1.1" xmlns:xlink="http://www.w3.org/1999/xlink" width="12px" height="12px" viewBox="708 496  12 12" xmlns="http://www.w3.org/2000/svg">
  <path d="M 714 496  C 717.36 496  720 498.64  720 502  C 720 505.36  717.36 508  714 508  C 710.64 508  708 505.36  708 502  C 708 498.64  710.64 496  714 496  Z " fill-rule="nonzero" fill="#f0f0f0" stroke="none" />
  <path d="M 714 496.5  C 717.08 496.5  719.5 498.92  719.5 502  C 719.5 505.08  717.08 507.5  714 507.5  C 710.92 507.5  708.5 505.08  708.5 502  C 708.5 498.92  710.92 496.5  714 496.5  Z " stroke-width="1" stroke="#797979" fill="none" />
  <path d="M 714 505  C 712.32 505  711 503.68  711 502  C 711 500.32  712.32 499  714 499  C 715.68 499  717 500.32  717 502  C 717 503.68  715.68 505  714 505  " fill-rule="nonzero" fill="#797979" stroke="none" />
</svg>