<?xml version="1.0" encoding="utf-8"?>
<svg version="1.1" xmlns:xlink="http://www.w3.org/1999/xlink" width="12px" height="12px" viewBox="592 496  12 12" xmlns="http://www.w3.org/2000/svg">
  <path d="M 598 496  C 601.36 496  604 498.64  604 502  C 604 505.36  601.36 508  598 508  C 594.64 508  592 505.36  592 502  C 592 498.64  594.64 496  598 496  Z " fill-rule="nonzero" fill="#ffffff" stroke="none" />
  <path d="M 598 496.5  C 601.08 496.5  603.5 498.92  603.5 502  C 603.5 505.08  601.08 507.5  598 507.5  C 594.92 507.5  592.5 505.08  592.5 502  C 592.5 498.92  594.92 496.5  598 496.5  Z " stroke-width="1" stroke="#797979" fill="none" />
  <path d="M 598 505  C 596.32 505  595 503.68  595 502  C 595 500.32  596.32 499  598 499  C 599.68 499  601 500.32  601 502  C 601 503.68  599.68 505  598 505  " fill-rule="nonzero" fill="#797979" stroke="none" />
</svg>