<?xml version="1.0" encoding="utf-8"?>
<svg version="1.1" xmlns:xlink="http://www.w3.org/1999/xlink" width="70px" height="25px" xmlns="http://www.w3.org/2000/svg">
  <g transform="matrix(1 0 0 1 -209 -195 )">
    <path d="M 210 203  A 7 7 0 0 1 217 196 L 271 196  A 7 7 0 0 1 278 203 L 278 212  A 7 7 0 0 1 271 219 L 217 219  A 7 7 0 0 1 210 212 L 210 203  Z " fill-rule="nonzero" fill="#81d3f8" stroke="none" fill-opacity="0.168627450980392" />
    <path d="M 209.5 203  A 7.5 7.5 0 0 1 217 195.5 L 271 195.5  A 7.5 7.5 0 0 1 278.5 203 L 278.5 212  A 7.5 7.5 0 0 1 271 219.5 L 217 219.5  A 7.5 7.5 0 0 1 209.5 212 L 209.5 203  Z " stroke-width="1" stroke="#0079fe" fill="none" stroke-opacity="0.654901960784314" />
  </g>
</svg>