<?xml version="1.0" encoding="utf-8"?>
<svg version="1.1" xmlns:xlink="http://www.w3.org/1999/xlink" width="12px" height="12px" viewBox="99 1395  12 12" xmlns="http://www.w3.org/2000/svg">
  <path d="M 105 1395  C 108.36 1395  111 1397.64  111 1401  C 111 1404.36  108.36 1407  105 1407  C 101.64 1407  99 1404.36  99 1401  C 99 1397.64  101.64 1395  105 1395  Z " fill-rule="nonzero" fill="#f0f0f0" stroke="none" />
  <path d="M 105 1395.5  C 108.08 1395.5  110.5 1397.92  110.5 1401  C 110.5 1404.08  108.08 1406.5  105 1406.5  C 101.92 1406.5  99.5 1404.08  99.5 1401  C 99.5 1397.92  101.92 1395.5  105 1395.5  Z " stroke-width="1" stroke="#797979" fill="none" />
  <path d="M 105 1404  C 103.32 1404  102 1402.68  102 1401  C 102 1399.32  103.32 1398  105 1398  C 106.68 1398  108 1399.32  108 1401  C 108 1402.68  106.68 1404  105 1404  " fill-rule="nonzero" fill="#797979" stroke="none" />
</svg>