<?xml version="1.0" encoding="utf-8"?>
<svg version="1.1" xmlns:xlink="http://www.w3.org/1999/xlink" width="12px" height="12px" viewBox="321 1395  12 12" xmlns="http://www.w3.org/2000/svg">
  <path d="M 327 1395  C 330.36 1395  333 1397.64  333 1401  C 333 1404.36  330.36 1407  327 1407  C 323.64 1407  321 1404.36  321 1401  C 321 1397.64  323.64 1395  327 1395  Z " fill-rule="nonzero" fill="#f0f0f0" stroke="none" />
  <path d="M 327 1395.5  C 330.08 1395.5  332.5 1397.92  332.5 1401  C 332.5 1404.08  330.08 1406.5  327 1406.5  C 323.92 1406.5  321.5 1404.08  321.5 1401  C 321.5 1397.92  323.92 1395.5  327 1395.5  Z " stroke-width="1" stroke="#797979" fill="none" />
  <path d="M 327 1404  C 325.32 1404  324 1402.68  324 1401  C 324 1399.32  325.32 1398  327 1398  C 328.68 1398  330 1399.32  330 1401  C 330 1402.68  328.68 1404  327 1404  " fill-rule="nonzero" fill="#797979" stroke="none" />
</svg>