<?xml version="1.0" encoding="utf-8"?>
<svg version="1.1" xmlns:xlink="http://www.w3.org/1999/xlink" width="70px" height="25px" xmlns="http://www.w3.org/2000/svg">
  <g transform="matrix(1 0 0 1 -82 -247 )">
    <path d="M 83 255  A 7 7 0 0 1 90 248 L 144 248  A 7 7 0 0 1 151 255 L 151 264  A 7 7 0 0 1 144 271 L 90 271  A 7 7 0 0 1 83 264 L 83 255  Z " fill-rule="nonzero" fill="#81d3f8" stroke="none" fill-opacity="0.168627450980392" />
    <path d="M 82.5 255  A 7.5 7.5 0 0 1 90 247.5 L 144 247.5  A 7.5 7.5 0 0 1 151.5 255 L 151.5 264  A 7.5 7.5 0 0 1 144 271.5 L 90 271.5  A 7.5 7.5 0 0 1 82.5 264 L 82.5 255  Z " stroke-width="1" stroke="#0079fe" fill="none" stroke-opacity="0.654901960784314" />
  </g>
</svg>