<?xml version="1.0" encoding="utf-8"?>
<svg version="1.1" xmlns:xlink="http://www.w3.org/1999/xlink" width="12px" height="12px" viewBox="898 944  12 12" xmlns="http://www.w3.org/2000/svg">
  <path d="M 904 944  C 907.36 944  910 946.64  910 950  C 910 953.36  907.36 956  904 956  C 900.64 956  898 953.36  898 950  C 898 946.64  900.64 944  904 944  Z " fill-rule="nonzero" fill="#f0f0f0" stroke="none" />
  <path d="M 904 944.5  C 907.08 944.5  909.5 946.92  909.5 950  C 909.5 953.08  907.08 955.5  904 955.5  C 900.92 955.5  898.5 953.08  898.5 950  C 898.5 946.92  900.92 944.5  904 944.5  Z " stroke-width="1" stroke="#797979" fill="none" />
  <path d="M 904 953  C 902.32 953  901 951.68  901 950  C 901 948.32  902.32 947  904 947  C 905.68 947  907 948.32  907 950  C 907 951.68  905.68 953  904 953  " fill-rule="nonzero" fill="#797979" stroke="none" />
</svg>