<?xml version="1.0" encoding="utf-8"?>
<svg version="1.1" xmlns:xlink="http://www.w3.org/1999/xlink" width="12px" height="12px" viewBox="782 944  12 12" xmlns="http://www.w3.org/2000/svg">
  <path d="M 788 944  C 791.36 944  794 946.64  794 950  C 794 953.36  791.36 956  788 956  C 784.64 956  782 953.36  782 950  C 782 946.64  784.64 944  788 944  Z " fill-rule="nonzero" fill="#f0f0f0" stroke="none" />
  <path d="M 788 944.5  C 791.08 944.5  793.5 946.92  793.5 950  C 793.5 953.08  791.08 955.5  788 955.5  C 784.92 955.5  782.5 953.08  782.5 950  C 782.5 946.92  784.92 944.5  788 944.5  Z " stroke-width="1" stroke="#797979" fill="none" />
  <path d="M 788 953  C 786.32 953  785 951.68  785 950  C 785 948.32  786.32 947  788 947  C 789.68 947  791 948.32  791 950  C 791 951.68  789.68 953  788 953  " fill-rule="nonzero" fill="#797979" stroke="none" />
</svg>