<?xml version="1.0" encoding="utf-8"?>
<svg version="1.1" xmlns:xlink="http://www.w3.org/1999/xlink" width="12px" height="12px" viewBox="538 229  12 12" xmlns="http://www.w3.org/2000/svg">
  <path d="M 544 229  C 547.36 229  550 231.64  550 235  C 550 238.36  547.36 241  544 241  C 540.64 241  538 238.36  538 235  C 538 231.64  540.64 229  544 229  Z " fill-rule="nonzero" fill="#f0f0f0" stroke="none" />
  <path d="M 544 229.5  C 547.08 229.5  549.5 231.92  549.5 235  C 549.5 238.08  547.08 240.5  544 240.5  C 540.92 240.5  538.5 238.08  538.5 235  C 538.5 231.92  540.92 229.5  544 229.5  Z " stroke-width="1" stroke="#797979" fill="none" />
  <path d="M 544 238  C 542.32 238  541 236.68  541 235  C 541 233.32  542.32 232  544 232  C 545.68 232  547 233.32  547 235  C 547 236.68  545.68 238  544 238  " fill-rule="nonzero" fill="#797979" stroke="none" />
</svg>