<?xml version="1.0" encoding="utf-8"?>
<svg version="1.1" xmlns:xlink="http://www.w3.org/1999/xlink" width="12px" height="12px" viewBox="2288 1226  12 12" xmlns="http://www.w3.org/2000/svg">
  <path d="M 2294 1226  C 2297.36 1226  2300 1228.64  2300 1232  C 2300 1235.36  2297.36 1238  2294 1238  C 2290.64 1238  2288 1235.36  2288 1232  C 2288 1228.64  2290.64 1226  2294 1226  Z " fill-rule="nonzero" fill="#f0f0f0" stroke="none" />
  <path d="M 2294 1226.5  C 2297.08 1226.5  2299.5 1228.92  2299.5 1232  C 2299.5 1235.08  2297.08 1237.5  2294 1237.5  C 2290.92 1237.5  2288.5 1235.08  2288.5 1232  C 2288.5 1228.92  2290.92 1226.5  2294 1226.5  Z " stroke-width="1" stroke="#797979" fill="none" />
  <path d="M 2294 1235  C 2292.32 1235  2291 1233.68  2291 1232  C 2291 1230.32  2292.32 1229  2294 1229  C 2295.68 1229  2297 1230.32  2297 1232  C 2297 1233.68  2295.68 1235  2294 1235  " fill-rule="nonzero" fill="#797979" stroke="none" />
</svg>