<?xml version="1.0" encoding="utf-8"?>
<svg version="1.1" xmlns:xlink="http://www.w3.org/1999/xlink" width="14px" height="14px" xmlns="http://www.w3.org/2000/svg">
  <g transform="matrix(1 0 0 1 -1530 -256 )">
    <path d="M 1537 257  C 1540.36 257  1543 259.64  1543 263  C 1543 266.36  1540.36 269  1537 269  C 1533.64 269  1531 266.36  1531 263  C 1531 259.64  1533.64 257  1537 257  Z " fill-rule="nonzero" fill="#0d0d51" stroke="none" />
    <path d="M 1537 257  C 1540.36 257  1543 259.64  1543 263  C 1543 266.36  1540.36 269  1537 269  C 1533.64 269  1531 266.36  1531 263  C 1531 259.64  1533.64 257  1537 257  Z " stroke-width="2" stroke="#ffffff" fill="none" />
  </g>
</svg>