<?xml version="1.0" encoding="utf-8"?>
<svg version="1.1" xmlns:xlink="http://www.w3.org/1999/xlink" width="70px" height="25px" xmlns="http://www.w3.org/2000/svg">
  <g transform="matrix(1 0 0 1 -1210 -874 )">
    <path d="M 1211 882  A 7 7 0 0 1 1218 875 L 1272 875  A 7 7 0 0 1 1279 882 L 1279 891  A 7 7 0 0 1 1272 898 L 1218 898  A 7 7 0 0 1 1211 891 L 1211 882  Z " fill-rule="nonzero" fill="#81d3f8" stroke="none" fill-opacity="0.168627450980392" />
    <path d="M 1210.5 882  A 7.5 7.5 0 0 1 1218 874.5 L 1272 874.5  A 7.5 7.5 0 0 1 1279.5 882 L 1279.5 891  A 7.5 7.5 0 0 1 1272 898.5 L 1218 898.5  A 7.5 7.5 0 0 1 1210.5 891 L 1210.5 882  Z " stroke-width="1" stroke="#0079fe" fill="none" stroke-opacity="0.654901960784314" />
  </g>
</svg>