<?xml version="1.0" encoding="utf-8"?>
<svg version="1.1" xmlns:xlink="http://www.w3.org/1999/xlink" width="12px" height="12px" viewBox="169 160  12 12" xmlns="http://www.w3.org/2000/svg">
  <path d="M 175 160  C 178.36 160  181 162.64  181 166  C 181 169.36  178.36 172  175 172  C 171.64 172  169 169.36  169 166  C 169 162.64  171.64 160  175 160  Z " fill-rule="nonzero" fill="#ffffff" stroke="none" />
  <path d="M 175 160.5  C 178.08 160.5  180.5 162.92  180.5 166  C 180.5 169.08  178.08 171.5  175 171.5  C 171.92 171.5  169.5 169.08  169.5 166  C 169.5 162.92  171.92 160.5  175 160.5  Z " stroke-width="1" stroke="#797979" fill="none" />
  <path d="M 175 169  C 173.32 169  172 167.68  172 166  C 172 164.32  173.32 163  175 163  C 176.68 163  178 164.32  178 166  C 178 167.68  176.68 169  175 169  " fill-rule="nonzero" fill="#797979" stroke="none" />
</svg>