<?xml version="1.0" encoding="utf-8"?>
<svg version="1.1" xmlns:xlink="http://www.w3.org/1999/xlink" width="12px" height="12px" viewBox="169 201  12 12" xmlns="http://www.w3.org/2000/svg">
  <path d="M 175 201  C 178.36 201  181 203.64  181 207  C 181 210.36  178.36 213  175 213  C 171.64 213  169 210.36  169 207  C 169 203.64  171.64 201  175 201  Z " fill-rule="nonzero" fill="#f0f0f0" stroke="none" />
  <path d="M 175 201.5  C 178.08 201.5  180.5 203.92  180.5 207  C 180.5 210.08  178.08 212.5  175 212.5  C 171.92 212.5  169.5 210.08  169.5 207  C 169.5 203.92  171.92 201.5  175 201.5  Z " stroke-width="1" stroke="#797979" fill="none" />
  <path d="M 175 210  C 173.32 210  172 208.68  172 207  C 172 205.32  173.32 204  175 204  C 176.68 204  178 205.32  178 207  C 178 208.68  176.68 210  175 210  " fill-rule="nonzero" fill="#797979" stroke="none" />
</svg>