<?xml version="1.0" encoding="utf-8"?>
<svg version="1.1" xmlns:xlink="http://www.w3.org/1999/xlink" width="12px" height="12px" viewBox="329 160  12 12" xmlns="http://www.w3.org/2000/svg">
  <path d="M 335 160  C 338.36 160  341 162.64  341 166  C 341 169.36  338.36 172  335 172  C 331.64 172  329 169.36  329 166  C 329 162.64  331.64 160  335 160  Z " fill-rule="nonzero" fill="#ffffff" stroke="none" />
  <path d="M 335 160.5  C 338.08 160.5  340.5 162.92  340.5 166  C 340.5 169.08  338.08 171.5  335 171.5  C 331.92 171.5  329.5 169.08  329.5 166  C 329.5 162.92  331.92 160.5  335 160.5  Z " stroke-width="1" stroke="#797979" fill="none" />
  <path d="M 335 169  C 333.32 169  332 167.68  332 166  C 332 164.32  333.32 163  335 163  C 336.68 163  338 164.32  338 166  C 338 167.68  336.68 169  335 169  " fill-rule="nonzero" fill="#797979" stroke="none" />
</svg>