<?xml version="1.0" encoding="utf-8"?>
<svg version="1.1" xmlns:xlink="http://www.w3.org/1999/xlink" width="14px" height="14px" xmlns="http://www.w3.org/2000/svg">
  <g transform="matrix(1 0 0 1 -424 -758 )">
    <path d="M 431 759  C 434.36 759  437 761.64  437 765  C 437 768.36  434.36 771  431 771  C 427.64 771  425 768.36  425 765  C 425 761.64  427.64 759  431 759  Z " fill-rule="nonzero" fill="#0d0d51" stroke="none" />
    <path d="M 431 759  C 434.36 759  437 761.64  437 765  C 437 768.36  434.36 771  431 771  C 427.64 771  425 768.36  425 765  C 425 761.64  427.64 759  431 759  Z " stroke-width="2" stroke="#ffffff" fill="none" />
  </g>
</svg>