<?xml version="1.0" encoding="utf-8"?>
<svg version="1.1" xmlns:xlink="http://www.w3.org/1999/xlink" width="331px" height="104px" xmlns="http://www.w3.org/2000/svg">
  <g transform="matrix(1 0 0 1 -107 -1470 )">
    <path d="M 108 1474  A 3 3 0 0 1 111 1471 L 434 1471  A 3 3 0 0 1 437 1474 L 437 1570  A 3 3 0 0 1 434 1573 L 111 1573  A 3 3 0 0 1 108 1570 L 108 1474  Z " fill-rule="nonzero" fill="#000000" stroke="none" fill-opacity="0.0196078431372549" />
    <path d="M 107.5 1474  A 3.5 3.5 0 0 1 111 1470.5 L 434 1470.5  A 3.5 3.5 0 0 1 437.5 1474 L 437.5 1570  A 3.5 3.5 0 0 1 434 1573.5 L 111 1573.5  A 3.5 3.5 0 0 1 107.5 1570 L 107.5 1474  Z " stroke-width="1" stroke-dasharray="9,4" stroke="#d9d9d9" fill="none" stroke-dashoffset="0.5" />
  </g>
</svg>