<?xml version="1.0" encoding="utf-8"?>
<svg version="1.1" xmlns:xlink="http://www.w3.org/1999/xlink" width="30px" height="30px" xmlns="http://www.w3.org/2000/svg">
  <g transform="matrix(1 0 0 1 -104 -1824 )">
    <path d="M 119 1825  C 126.84 1825  133 1831.16  133 1839  C 133 1846.84  126.84 1853  119 1853  C 111.16 1853  105 1846.84  105 1839  C 105 1831.16  111.16 1825  119 1825  Z " fill-rule="nonzero" fill="#ffffff" stroke="none" />
    <path d="M 119 1825  C 126.84 1825  133 1831.16  133 1839  C 133 1846.84  126.84 1853  119 1853  C 111.16 1853  105 1846.84  105 1839  C 105 1831.16  111.16 1825  119 1825  Z " stroke-width="2" stroke="#cccccc" fill="none" />
  </g>
</svg>