<?xml version="1.0" encoding="utf-8"?>
<svg version="1.1" xmlns:xlink="http://www.w3.org/1999/xlink" width="30px" height="30px" xmlns="http://www.w3.org/2000/svg">
  <g transform="matrix(1 0 0 1 -612 -2211 )">
    <path d="M 627 2212  C 634.84 2212  641 2218.16  641 2226  C 641 2233.84  634.84 2240  627 2240  C 619.16 2240  613 2233.84  613 2226  C 613 2218.16  619.16 2212  627 2212  Z " fill-rule="nonzero" fill="#ffffff" stroke="none" />
    <path d="M 627 2212  C 634.84 2212  641 2218.16  641 2226  C 641 2233.84  634.84 2240  627 2240  C 619.16 2240  613 2233.84  613 2226  C 613 2218.16  619.16 2212  627 2212  Z " stroke-width="2" stroke="#e4e4e4" fill="none" />
  </g>
</svg>