<?xml version="1.0" encoding="utf-8"?>
<svg version="1.1" xmlns:xlink="http://www.w3.org/1999/xlink" width="30px" height="30px" xmlns="http://www.w3.org/2000/svg">
  <g transform="matrix(1 0 0 1 -104 -1760 )">
    <path d="M 119 1761  C 126.84 1761  133 1767.16  133 1775  C 133 1782.84  126.84 1789  119 1789  C 111.16 1789  105 1782.84  105 1775  C 105 1767.16  111.16 1761  119 1761  Z " fill-rule="nonzero" fill="#0079fe" stroke="none" />
    <path d="M 119 1761  C 126.84 1761  133 1767.16  133 1775  C 133 1782.84  126.84 1789  119 1789  C 111.16 1789  105 1782.84  105 1775  C 105 1767.16  111.16 1761  119 1761  Z " stroke-width="2" stroke="#0079fe" fill="none" />
  </g>
</svg>