<?xml version="1.0" encoding="utf-8"?>
<svg version="1.1" xmlns:xlink="http://www.w3.org/1999/xlink" width="80px" height="35px" xmlns="http://www.w3.org/2000/svg">
  <g transform="matrix(1 0 0 1 -981 -106 )">
    <path d="M 982 111  A 4 4 0 0 1 986 107 L 1056 107  A 4 4 0 0 1 1060 111 L 1060 136  A 4 4 0 0 1 1056 140 L 986 140  A 4 4 0 0 1 982 136 L 982 111  Z " fill-rule="nonzero" fill="#f0f7ff" stroke="none" />
    <path d="M 981.5 111  A 4.5 4.5 0 0 1 986 106.5 L 1056 106.5  A 4.5 4.5 0 0 1 1060.5 111 L 1060.5 136  A 4.5 4.5 0 0 1 1056 140.5 L 986 140.5  A 4.5 4.5 0 0 1 981.5 136 L 981.5 111  Z " stroke-width="1" stroke="#7abbff" fill="none" stroke-opacity="0.996078431372549" />
  </g>
</svg>