<?xml version="1.0" encoding="utf-8"?>
<svg version="1.1" xmlns:xlink="http://www.w3.org/1999/xlink" width="236px" height="36px" xmlns="http://www.w3.org/2000/svg">
  <g transform="matrix(1 0 0 1 -28 -95 )">
    <path d="M 250.068481616806 95.5  C 250.068481616806 95.5  252.944977093829 95.7193937228238  252.944977093829 95.7193937228238  C 252.944977093829 95.7193937228238  263.473952347048 113  263.473952347048 113  C 263.473952347048 113  252.944977093829 130.280606277176  252.944977093829 130.280606277176  C 252.944977093829 130.280606277176  250.068481616806 130.5  250.068481616806 130.5  C 250.068481616806 130.5  28.5 130.5  28.5 130.5  C 28.5 130.5  28.5 95.5  28.5 95.5  C 28.5 95.5  250.068481616806 95.5  250.068481616806 95.5  Z " fill-rule="nonzero" fill="#0079fe" stroke="none" />
    <path d="M 250.068481616806 95.5  C 250.068481616806 95.5  252.944977093829 95.7193937228238  252.944977093829 95.7193937228238  C 252.944977093829 95.7193937228238  263.473952347048 113  263.473952347048 113  C 263.473952347048 113  252.944977093829 130.280606277176  252.944977093829 130.280606277176  C 252.944977093829 130.280606277176  250.068481616806 130.5  250.068481616806 130.5  C 250.068481616806 130.5  28.5 130.5  28.5 130.5  C 28.5 130.5  28.5 95.5  28.5 95.5  C 28.5 95.5  250.068481616806 95.5  250.068481616806 95.5  Z " stroke-width="1" stroke="#0079fe" fill="none" />
  </g>
</svg>