<?xml version="1.0" encoding="utf-8"?>
<svg version="1.1" xmlns:xlink="http://www.w3.org/1999/xlink" width="12px" height="12px" viewBox="759 1710  12 12" xmlns="http://www.w3.org/2000/svg">
  <path d="M 765 1710  C 768.36 1710  771 1712.64  771 1716  C 771 1719.36  768.36 1722  765 1722  C 761.64 1722  759 1719.36  759 1716  C 759 1712.64  761.64 1710  765 1710  Z " fill-rule="nonzero" fill="#ffffff" stroke="none" />
  <path d="M 765 1710.5  C 768.08 1710.5  770.5 1712.92  770.5 1716  C 770.5 1719.08  768.08 1721.5  765 1721.5  C 761.92 1721.5  759.5 1719.08  759.5 1716  C 759.5 1712.92  761.92 1710.5  765 1710.5  Z " stroke-width="1" stroke="#aaaaaa" fill="none" />
  <path d="M 765 1719  C 763.32 1719  762 1717.68  762 1716  C 762 1714.32  763.32 1713  765 1713  C 766.68 1713  768 1714.32  768 1716  C 768 1717.68  766.68 1719  765 1719  " fill-rule="nonzero" fill="#aaaaaa" stroke="none" />
</svg>