<?xml version="1.0" encoding="utf-8"?>
<svg version="1.1" xmlns:xlink="http://www.w3.org/1999/xlink" width="12px" height="12px" viewBox="759 2040  12 12" xmlns="http://www.w3.org/2000/svg">
  <path d="M 765 2040  C 768.36 2040  771 2042.64  771 2046  C 771 2049.36  768.36 2052  765 2052  C 761.64 2052  759 2049.36  759 2046  C 759 2042.64  761.64 2040  765 2040  Z " fill-rule="nonzero" fill="#f0f0f0" stroke="none" />
  <path d="M 765 2040.5  C 768.08 2040.5  770.5 2042.92  770.5 2046  C 770.5 2049.08  768.08 2051.5  765 2051.5  C 761.92 2051.5  759.5 2049.08  759.5 2046  C 759.5 2042.92  761.92 2040.5  765 2040.5  Z " stroke-width="1" stroke="#aaaaaa" fill="none" />
  <path d="M 765 2049  C 763.32 2049  762 2047.68  762 2046  C 762 2044.32  763.32 2043  765 2043  C 766.68 2043  768 2044.32  768 2046  C 768 2047.68  766.68 2049  765 2049  " fill-rule="nonzero" fill="#aaaaaa" stroke="none" />
</svg>