<?xml version="1.0" encoding="utf-8"?>
<svg version="1.1" xmlns:xlink="http://www.w3.org/1999/xlink" width="12px" height="12px" viewBox="759 1842  12 12" xmlns="http://www.w3.org/2000/svg">
  <path d="M 765 1842  C 768.36 1842  771 1844.64  771 1848  C 771 1851.36  768.36 1854  765 1854  C 761.64 1854  759 1851.36  759 1848  C 759 1844.64  761.64 1842  765 1842  Z " fill-rule="nonzero" fill="#f0f0f0" stroke="none" />
  <path d="M 765 1842.5  C 768.08 1842.5  770.5 1844.92  770.5 1848  C 770.5 1851.08  768.08 1853.5  765 1853.5  C 761.92 1853.5  759.5 1851.08  759.5 1848  C 759.5 1844.92  761.92 1842.5  765 1842.5  Z " stroke-width="1" stroke="#aaaaaa" fill="none" />
  <path d="M 765 1851  C 763.32 1851  762 1849.68  762 1848  C 762 1846.32  763.32 1845  765 1845  C 766.68 1845  768 1846.32  768 1848  C 768 1849.68  766.68 1851  765 1851  " fill-rule="nonzero" fill="#aaaaaa" stroke="none" />
</svg>