<?xml version="1.0" encoding="utf-8"?>
<svg version="1.1" xmlns:xlink="http://www.w3.org/1999/xlink" width="12px" height="12px" viewBox="759 2007  12 12" xmlns="http://www.w3.org/2000/svg">
  <path d="M 765 2007  C 768.36 2007  771 2009.64  771 2013  C 771 2016.36  768.36 2019  765 2019  C 761.64 2019  759 2016.36  759 2013  C 759 2009.64  761.64 2007  765 2007  Z " fill-rule="nonzero" fill="#f0f0f0" stroke="none" />
  <path d="M 765 2007.5  C 768.08 2007.5  770.5 2009.92  770.5 2013  C 770.5 2016.08  768.08 2018.5  765 2018.5  C 761.92 2018.5  759.5 2016.08  759.5 2013  C 759.5 2009.92  761.92 2007.5  765 2007.5  Z " stroke-width="1" stroke="#aaaaaa" fill="none" />
  <path d="M 765 2016  C 763.32 2016  762 2014.68  762 2013  C 762 2011.32  763.32 2010  765 2010  C 766.68 2010  768 2011.32  768 2013  C 768 2014.68  766.68 2016  765 2016  " fill-rule="nonzero" fill="#aaaaaa" stroke="none" />
</svg>