<?xml version="1.0" encoding="utf-8"?>
<svg version="1.1" xmlns:xlink="http://www.w3.org/1999/xlink" width="12px" height="12px" viewBox="759 1873  12 12" xmlns="http://www.w3.org/2000/svg">
  <path d="M 765 1873  C 768.36 1873  771 1875.64  771 1879  C 771 1882.36  768.36 1885  765 1885  C 761.64 1885  759 1882.36  759 1879  C 759 1875.64  761.64 1873  765 1873  Z " fill-rule="nonzero" fill="#f0f0f0" stroke="none" />
  <path d="M 765 1873.5  C 768.08 1873.5  770.5 1875.92  770.5 1879  C 770.5 1882.08  768.08 1884.5  765 1884.5  C 761.92 1884.5  759.5 1882.08  759.5 1879  C 759.5 1875.92  761.92 1873.5  765 1873.5  Z " stroke-width="1" stroke="#aaaaaa" fill="none" />
  <path d="M 765 1882  C 763.32 1882  762 1880.68  762 1879  C 762 1877.32  763.32 1876  765 1876  C 766.68 1876  768 1877.32  768 1879  C 768 1880.68  766.68 1882  765 1882  " fill-rule="nonzero" fill="#aaaaaa" stroke="none" />
</svg>