<?xml version="1.0" encoding="utf-8"?>
<svg version="1.1" xmlns:xlink="http://www.w3.org/1999/xlink" width="12px" height="12px" viewBox="759 1807  12 12" xmlns="http://www.w3.org/2000/svg">
  <path d="M 765 1807  C 768.36 1807  771 1809.64  771 1813  C 771 1816.36  768.36 1819  765 1819  C 761.64 1819  759 1816.36  759 1813  C 759 1809.64  761.64 1807  765 1807  Z " fill-rule="nonzero" fill="#f0f0f0" stroke="none" />
  <path d="M 765 1807.5  C 768.08 1807.5  770.5 1809.92  770.5 1813  C 770.5 1816.08  768.08 1818.5  765 1818.5  C 761.92 1818.5  759.5 1816.08  759.5 1813  C 759.5 1809.92  761.92 1807.5  765 1807.5  Z " stroke-width="1" stroke="#aaaaaa" fill="none" />
  <path d="M 765 1816  C 763.32 1816  762 1814.68  762 1813  C 762 1811.32  763.32 1810  765 1810  C 766.68 1810  768 1811.32  768 1813  C 768 1814.68  766.68 1816  765 1816  " fill-rule="nonzero" fill="#aaaaaa" stroke="none" />
</svg>