<?xml version="1.0" encoding="utf-8"?>
<svg version="1.1" xmlns:xlink="http://www.w3.org/1999/xlink" width="12px" height="12px" viewBox="759 1748  12 12" xmlns="http://www.w3.org/2000/svg">
  <path d="M 765 1748  C 768.36 1748  771 1750.64  771 1754  C 771 1757.36  768.36 1760  765 1760  C 761.64 1760  759 1757.36  759 1754  C 759 1750.64  761.64 1748  765 1748  Z " fill-rule="nonzero" fill="#ffffff" stroke="none" />
  <path d="M 765 1748.5  C 768.08 1748.5  770.5 1750.92  770.5 1754  C 770.5 1757.08  768.08 1759.5  765 1759.5  C 761.92 1759.5  759.5 1757.08  759.5 1754  C 759.5 1750.92  761.92 1748.5  765 1748.5  Z " stroke-width="1" stroke="#aaaaaa" fill="none" />
  <path d="M 765 1757  C 763.32 1757  762 1755.68  762 1754  C 762 1752.32  763.32 1751  765 1751  C 766.68 1751  768 1752.32  768 1754  C 768 1755.68  766.68 1757  765 1757  " fill-rule="nonzero" fill="#aaaaaa" stroke="none" />
</svg>