<?xml version="1.0" encoding="utf-8"?>
<svg version="1.1" xmlns:xlink="http://www.w3.org/1999/xlink" width="127px" height="25px" xmlns="http://www.w3.org/2000/svg">
  <g transform="matrix(1 0 0 1 -802 -844 )">
    <path d="M 803 852  A 7 7 0 0 1 810 845 L 921 845  A 7 7 0 0 1 928 852 L 928 861  A 7 7 0 0 1 921 868 L 810 868  A 7 7 0 0 1 803 861 L 803 852  Z " fill-rule="nonzero" fill="#81d3f8" stroke="none" fill-opacity="0.168627450980392" />
    <path d="M 802.5 852  A 7.5 7.5 0 0 1 810 844.5 L 921 844.5  A 7.5 7.5 0 0 1 928.5 852 L 928.5 861  A 7.5 7.5 0 0 1 921 868.5 L 810 868.5  A 7.5 7.5 0 0 1 802.5 861 L 802.5 852  Z " stroke-width="1" stroke="#0079fe" fill="none" stroke-opacity="0.654901960784314" />
  </g>
</svg>