<?xml version="1.0" encoding="utf-8"?>
<svg version="1.1" xmlns:xlink="http://www.w3.org/1999/xlink" width="12px" height="12px" viewBox="19 747  12 12" xmlns="http://www.w3.org/2000/svg">
  <path d="M 25 747  C 28.36 747  31 749.64  31 753  C 31 756.36  28.36 759  25 759  C 21.64 759  19 756.36  19 753  C 19 749.64  21.64 747  25 747  Z " fill-rule="nonzero" fill="#ffffff" stroke="none" />
  <path d="M 25 747.5  C 28.08 747.5  30.5 749.92  30.5 753  C 30.5 756.08  28.08 758.5  25 758.5  C 21.92 758.5  19.5 756.08  19.5 753  C 19.5 749.92  21.92 747.5  25 747.5  Z " stroke-width="1" stroke="#797979" fill="none" />
  <path d="M 25 756  C 23.32 756  22 754.68  22 753  C 22 751.32  23.32 750  25 750  C 26.68 750  28 751.32  28 753  C 28 754.68  26.68 756  25 756  " fill-rule="nonzero" fill="#797979" stroke="none" />
</svg>