<?xml version="1.0" encoding="utf-8"?>
<svg version="1.1" xmlns:xlink="http://www.w3.org/1999/xlink" width="12px" height="12px" viewBox="187 747  12 12" xmlns="http://www.w3.org/2000/svg">
  <path d="M 193 747  C 196.36 747  199 749.64  199 753  C 199 756.36  196.36 759  193 759  C 189.64 759  187 756.36  187 753  C 187 749.64  189.64 747  193 747  Z " fill-rule="nonzero" fill="#f0f0f0" stroke="none" />
  <path d="M 193 747.5  C 196.08 747.5  198.5 749.92  198.5 753  C 198.5 756.08  196.08 758.5  193 758.5  C 189.92 758.5  187.5 756.08  187.5 753  C 187.5 749.92  189.92 747.5  193 747.5  Z " stroke-width="1" stroke="#797979" fill="none" />
  <path d="M 193 756  C 191.32 756  190 754.68  190 753  C 190 751.32  191.32 750  193 750  C 194.68 750  196 751.32  196 753  C 196 754.68  194.68 756  193 756  " fill-rule="nonzero" fill="#797979" stroke="none" />
</svg>