<?xml version="1.0" encoding="utf-8"?>
<svg version="1.1" xmlns:xlink="http://www.w3.org/1999/xlink" width="12px" height="12px" viewBox="19 353  12 12" xmlns="http://www.w3.org/2000/svg">
  <path d="M 25 353  C 28.36 353  31 355.64  31 359  C 31 362.36  28.36 365  25 365  C 21.64 365  19 362.36  19 359  C 19 355.64  21.64 353  25 353  Z " fill-rule="nonzero" fill="#ffffff" stroke="none" />
  <path d="M 25 353.5  C 28.08 353.5  30.5 355.92  30.5 359  C 30.5 362.08  28.08 364.5  25 364.5  C 21.92 364.5  19.5 362.08  19.5 359  C 19.5 355.92  21.92 353.5  25 353.5  Z " stroke-width="1" stroke="#797979" fill="none" />
  <path d="M 25 362  C 23.32 362  22 360.68  22 359  C 22 357.32  23.32 356  25 356  C 26.68 356  28 357.32  28 359  C 28 360.68  26.68 362  25 362  " fill-rule="nonzero" fill="#797979" stroke="none" />
</svg>