<?xml version="1.0" encoding="utf-8"?>
<svg version="1.1" xmlns:xlink="http://www.w3.org/1999/xlink" width="12px" height="12px" viewBox="179 353  12 12" xmlns="http://www.w3.org/2000/svg">
  <path d="M 185 353  C 188.36 353  191 355.64  191 359  C 191 362.36  188.36 365  185 365  C 181.64 365  179 362.36  179 359  C 179 355.64  181.64 353  185 353  Z " fill-rule="nonzero" fill="#ffffff" stroke="none" />
  <path d="M 185 353.5  C 188.08 353.5  190.5 355.92  190.5 359  C 190.5 362.08  188.08 364.5  185 364.5  C 181.92 364.5  179.5 362.08  179.5 359  C 179.5 355.92  181.92 353.5  185 353.5  Z " stroke-width="1" stroke="#797979" fill="none" />
  <path d="M 185 362  C 183.32 362  182 360.68  182 359  C 182 357.32  183.32 356  185 356  C 186.68 356  188 357.32  188 359  C 188 360.68  186.68 362  185 362  " fill-rule="nonzero" fill="#797979" stroke="none" />
</svg>