<?xml version="1.0" encoding="utf-8"?>
<svg version="1.1" xmlns:xlink="http://www.w3.org/1999/xlink" width="12px" height="12px" viewBox="31 331  12 12" xmlns="http://www.w3.org/2000/svg">
  <path d="M 37 331  C 40.36 331  43 333.64  43 337  C 43 340.36  40.36 343  37 343  C 33.64 343  31 340.36  31 337  C 31 333.64  33.64 331  37 331  Z " fill-rule="nonzero" fill="#ffffff" stroke="none" />
  <path d="M 37 331.5  C 40.08 331.5  42.5 333.92  42.5 337  C 42.5 340.08  40.08 342.5  37 342.5  C 33.92 342.5  31.5 340.08  31.5 337  C 31.5 333.92  33.92 331.5  37 331.5  Z " stroke-width="1" stroke="#797979" fill="none" />
  <path d="M 37 340  C 35.32 340  34 338.68  34 337  C 34 335.32  35.32 334  37 334  C 38.68 334  40 335.32  40 337  C 40 338.68  38.68 340  37 340  " fill-rule="nonzero" fill="#797979" stroke="none" />
</svg>