<?xml version="1.0" encoding="utf-8"?>
<svg version="1.1" xmlns:xlink="http://www.w3.org/1999/xlink" width="80px" height="30px" xmlns="http://www.w3.org/2000/svg">
  <g transform="matrix(1 0 0 1 -867 -391 )">
    <path d="M 868 394  A 2 2 0 0 1 870 392 L 944 392  A 2 2 0 0 1 946 394 L 946 418  A 2 2 0 0 1 944 420 L 870 420  A 2 2 0 0 1 868 418 L 868 394  Z " fill-rule="nonzero" fill="#f0f7ff" stroke="none" />
    <path d="M 867.5 394  A 2.5 2.5 0 0 1 870 391.5 L 944 391.5  A 2.5 2.5 0 0 1 946.5 394 L 946.5 418  A 2.5 2.5 0 0 1 944 420.5 L 870 420.5  A 2.5 2.5 0 0 1 867.5 418 L 867.5 394  Z " stroke-width="1" stroke="#7abbff" fill="none" stroke-opacity="0.996078431372549" />
  </g>
</svg>