<?xml version="1.0" encoding="utf-8"?>
<svg version="1.1" xmlns:xlink="http://www.w3.org/1999/xlink" width="87px" height="20px" xmlns="http://www.w3.org/2000/svg">
  <defs>
    <mask fill="white" id="clip11">
      <path d="M 0 17  L 0 3  C 0 1.32000000000005  1.32000000000016 0  3 0  L 84 0  C 85.6799999999998 0  87 1.32000000000005  87 3  L 87 17  C 87 18.6799999999999  85.6799999999998 20  84 20  L 53.6962025316457 20  L 3 20  C 1.32000000000016 20  0 18.6799999999999  0 17  Z " fill-rule="evenodd" />
    </mask>
  </defs>
  <g transform="matrix(1 0 0 1 -2302 -967 )">
    <path d="M 0 17  L 0 3  C 0 1.32000000000005  1.32000000000016 0  3 0  L 84 0  C 85.6799999999998 0  87 1.32000000000005  87 3  L 87 17  C 87 18.6799999999999  85.6799999999998 20  84 20  L 53.6962025316457 20  L 3 20  C 1.32000000000016 20  0 18.6799999999999  0 17  Z " fill-rule="nonzero" fill="#ffffff" stroke="none" fill-opacity="0" transform="matrix(1 0 0 1 2302 967 )" />
    <path d="M 0 17  L 0 3  C 0 1.32000000000005  1.32000000000016 0  3 0  L 84 0  C 85.6799999999998 0  87 1.32000000000005  87 3  L 87 17  C 87 18.6799999999999  85.6799999999998 20  84 20  L 53.6962025316457 20  L 3 20  C 1.32000000000016 20  0 18.6799999999999  0 17  Z " stroke-width="2" stroke="#aaaaaa" fill="none" transform="matrix(1 0 0 1 2302 967 )" mask="url(#clip11)" />
  </g>
</svg>