<?xml version="1.0" encoding="utf-8"?>
<svg version="1.1" xmlns:xlink="http://www.w3.org/1999/xlink" width="24px" height="24px" xmlns="http://www.w3.org/2000/svg">
  <g transform="matrix(1 0 0 1 -333 -15 )">
    <path d="M 23.8806084421642 11.9239495802264  C 23.871681549687 5.33591783088264  18.5285176248088 0  11.9404798274254 0  C 5.34613980772724 0  0.000362127485800556 5.34577768024036  0.000362127485800556 11.9401286380572  C 0.000362127485800556 18.5344795958741  5.34613980772724 23.8802572761144  11.9404907655455 23.8802572761144  C 18.5348417233638 23.8802572761144  23.8806194036052 18.5344795958741  23.8806194036052 11.9401286380572  C 23.8806194036052 11.9347356169232  23.8806157497906 11.9293425964095  23.8806084421642 11.9239495802264  Z M 13.4936672807836 11.988665741607  L 17.0530552238806 15.4995165578376  C 17.2906155507026 15.7113322636118  17.4264692125429 16.0144769606096  17.4264692125429 16.3327548299194  C 17.4264692125429 16.9492998423591  16.9266607268484 17.4491083280535  16.3101157144085 17.4491083280535  C 16.0117355222408 17.4491083280535  15.7257730217963 17.3296597850003  15.5160468050373 17.117420172576  L 11.9404798274254 13.4771370569052  L 8.36491284981344 17.0365250000015  C 8.15036549101353 17.2510723588013  7.85937682703013 17.37160380992  7.55596104244398 17.37160380992  C 6.92413037917629 17.37160380992  6.41193042515602 16.8594038558998  6.41193042515602 16.2275731926322  C 6.41193042515602 15.9241574080462  6.53246187627474 15.6331687440628  6.74700923507464 15.418621385263  L 10.3063971781717 11.8430544076518  L 6.74700923507464 8.28366646455555  C 6.53246188138758 8.06911910777603  6.41193043340115 7.77813044838894  6.41193043340115 7.47471466884679  C 6.41193043340115 6.84288401013293  6.92413038373002 6.33068405980418  7.55596104244398 6.33068405980418  C 7.85937682770054 6.33068405980418  8.15036549208583 6.4512155123179  8.36491284981344 6.66576287313802  L 11.9404798274254 10.3869411613835  L 15.5160468050373 6.81137418377233  C 15.7205575963484 6.62902640634877  15.9849874537564 6.52825895771997  16.2589863145095 6.52825895771997  C 16.8755313269493 6.52825895771997  17.3753398126437 7.02806744341439  17.3753398126437 7.64461245585409  C 17.3753398126437 7.93838434104327  17.259542342289 8.22031610235808  17.0530552238806 8.42927779851078  L 13.4936672807836 11.988665741607  Z " fill-rule="nonzero" fill="#c8c9cc" stroke="none" transform="matrix(1 0 0 1 333 15 )" />
  </g>
</svg>