<?xml version="1.0" encoding="utf-8"?>
<svg version="1.1" xmlns:xlink="http://www.w3.org/1999/xlink" width="12px" height="12px" viewBox="48 986  12 12" xmlns="http://www.w3.org/2000/svg">
  <path d="M 54 986  C 57.36 986  60 988.64  60 992  C 60 995.36  57.36 998  54 998  C 50.64 998  48 995.36  48 992  C 48 988.64  50.64 986  54 986  Z " fill-rule="nonzero" fill="#f0f0f0" stroke="none" />
  <path d="M 54 986.5  C 57.08 986.5  59.5 988.92  59.5 992  C 59.5 995.08  57.08 997.5  54 997.5  C 50.92 997.5  48.5 995.08  48.5 992  C 48.5 988.92  50.92 986.5  54 986.5  Z " stroke-width="1" stroke="#797979" fill="none" />
  <path d="M 54 995  C 52.32 995  51 993.68  51 992  C 51 990.32  52.32 989  54 989  C 55.68 989  57 990.32  57 992  C 57 993.68  55.68 995  54 995  " fill-rule="nonzero" fill="#797979" stroke="none" />
</svg>