<?xml version="1.0" encoding="utf-8"?>
<svg version="1.1" xmlns:xlink="http://www.w3.org/1999/xlink" width="12px" height="12px" viewBox="31 174  12 12" xmlns="http://www.w3.org/2000/svg">
  <path d="M 37 174  C 40.36 174  43 176.64  43 180  C 43 183.36  40.36 186  37 186  C 33.64 186  31 183.36  31 180  C 31 176.64  33.64 174  37 174  Z " fill-rule="nonzero" fill="#f0f0f0" stroke="none" />
  <path d="M 37 174.5  C 40.08 174.5  42.5 176.92  42.5 180  C 42.5 183.08  40.08 185.5  37 185.5  C 33.92 185.5  31.5 183.08  31.5 180  C 31.5 176.92  33.92 174.5  37 174.5  Z " stroke-width="1" stroke="#797979" fill="none" />
  <path d="M 37 183  C 35.32 183  34 181.68  34 180  C 34 178.32  35.32 177  37 177  C 38.68 177  40 178.32  40 180  C 40 181.68  38.68 183  37 183  " fill-rule="nonzero" fill="#797979" stroke="none" />
</svg>