<?xml version="1.0" encoding="utf-8"?>
<svg version="1.1" xmlns:xlink="http://www.w3.org/1999/xlink" width="12px" height="12px" viewBox="954 556  12 12" xmlns="http://www.w3.org/2000/svg">
  <path d="M 960 556  C 963.36 556  966 558.64  966 562  C 966 565.36  963.36 568  960 568  C 956.64 568  954 565.36  954 562  C 954 558.64  956.64 556  960 556  Z " fill-rule="nonzero" fill="#f0f0f0" stroke="none" />
  <path d="M 960 556.5  C 963.08 556.5  965.5 558.92  965.5 562  C 965.5 565.08  963.08 567.5  960 567.5  C 956.92 567.5  954.5 565.08  954.5 562  C 954.5 558.92  956.92 556.5  960 556.5  Z " stroke-width="1" stroke="#797979" fill="none" />
  <path d="M 960 565  C 958.32 565  957 563.68  957 562  C 957 560.32  958.32 559  960 559  C 961.68 559  963 560.32  963 562  C 963 563.68  961.68 565  960 565  " fill-rule="nonzero" fill="#797979" stroke="none" />
</svg>