<?xml version="1.0" encoding="utf-8"?>
<svg version="1.1" xmlns:xlink="http://www.w3.org/1999/xlink" width="12px" height="12px" viewBox="887 556  12 12" xmlns="http://www.w3.org/2000/svg">
  <path d="M 893 556  C 896.36 556  899 558.64  899 562  C 899 565.36  896.36 568  893 568  C 889.64 568  887 565.36  887 562  C 887 558.64  889.64 556  893 556  Z " fill-rule="nonzero" fill="#ffffff" stroke="none" />
  <path d="M 893 556.5  C 896.08 556.5  898.5 558.92  898.5 562  C 898.5 565.08  896.08 567.5  893 567.5  C 889.92 567.5  887.5 565.08  887.5 562  C 887.5 558.92  889.92 556.5  893 556.5  Z " stroke-width="1" stroke="#797979" fill="none" />
  <path d="M 893 565  C 891.32 565  890 563.68  890 562  C 890 560.32  891.32 559  893 559  C 894.68 559  896 560.32  896 562  C 896 563.68  894.68 565  893 565  " fill-rule="nonzero" fill="#797979" stroke="none" />
</svg>