<?xml version="1.0" encoding="utf-8"?>
<svg version="1.1" xmlns:xlink="http://www.w3.org/1999/xlink" width="969px" height="142px" xmlns="http://www.w3.org/2000/svg">
  <g transform="matrix(1 0 0 1 -90 -1015 )">
    <path d="M 91 1019  A 3 3 0 0 1 94 1016 L 1055 1016  A 3 3 0 0 1 1058 1019 L 1058 1153  A 3 3 0 0 1 1055 1156 L 94 1156  A 3 3 0 0 1 91 1153 L 91 1019  Z " fill-rule="nonzero" fill="#000000" stroke="none" fill-opacity="0.0196078431372549" />
    <path d="M 90.5 1019  A 3.5 3.5 0 0 1 94 1015.5 L 1055 1015.5  A 3.5 3.5 0 0 1 1058.5 1019 L 1058.5 1153  A 3.5 3.5 0 0 1 1055 1156.5 L 94 1156.5  A 3.5 3.5 0 0 1 90.5 1153 L 90.5 1019  Z " stroke-width="1" stroke-dasharray="9,4" stroke="#d9d9d9" fill="none" stroke-dashoffset="0.5" />
  </g>
</svg>